<?xml version="1.0" standalone="no"?>
<svg xmlns="http://www.w3.org/2000/svg" height="1920pt" preserveAspectRatio="xMidYMid meet" viewBox="-632 0 2560 1920" width="2560pt">
  <path d="m5029 19164c-120-18-259-51-359-86-108-38-500-234-605-302-163-107-391-310-480-428-110-147-130-338-58-568 15-46 75-181 134-300 164-331 218-495 260-792l22-153-38-110c-64-182-52-287 44-377 36-34 51-57 60-94 22-86 104-177 274-305 79-59 211-130 271-145 28-7 27-8-100-135-103-103-127-133-127-156 0-26-12-34-161-116-88-48-162-83-165-79-3 5-69-26-146-69s-144-78-150-78c-5-1-19 13-30 29-11 17-37 42-58 57-34 24-43 25-106 20-81-7-190-52-239-100-50-48-88-113-117-202-24-71-27-90-22-175 3-52 12-114 20-137 21-57 13-54-17 4l-23 47-23-44c-91-181-1864-3646-1866-3649-2-2-31 17-65 43s-64 44-68 39c-4-4-63-136-131-293s-129-292-135-300c-20-24-37-89-32-117 9-49-66-92-208-118-102-18-506-147-554-176-35-21-43-62-13-77 24-13 166-31 304-39l117-6-44-39c-82-72-145-208-195-418-32-138-31-222 3-292 50-103 146-140 270-104 76 22 328 151 411 210 96 68 187 146 364 310 166 153 212 210 212 263 0 33 1 33 23 18 22-14 29-8 276 239l253 253-71 54c-39 30-69 59-67 65 4 11 1922 2763 1936 2778 11 11 136-234 171-334 14-41 31-86 37-100 7-14 81-371 166-795 85-423 175-873 201-1000 25-126 53-247 62-268 16-37 15-39-35-200-108-349-675-2153-679-2164-4-10 27-13 134-13h139l-26-232-25-233-1451-1140c-798-627-1450-1142-1449-1143 7-8 523 161 550 180 17 12 542 415 1168 895 627 481 1140 873 1142 871s-50-498-116-1103c-65-605-195-1840-289-2745-93-905-172-1664-175-1687-5-36-12-45-50-67-82-49-199-200-375-487-82-134-263-307-731-700-224-189-354-314-373-361-20-47-20-97-1-125 8-12 35-29 60-38 41-16 49-16 113-2 103 24 284 92 685 259 771 320 1046 421 1301 473 161 33 206 69 206 160 0 44-23 198-67 441-3 20 3 53 17 90 12 33 34 122 50 199s49 228 74 335 59 272 76 365c38 207 61 299 101 407 109 290 158 467 213 758 35 184 165 1037 226 1472 17 125 42 273 56 330 33 138 795 2831 803 2839 3 4 78 8 165 10l159 4 159-560c279-984 626-2218 642-2280 21-84 52-271 76-465 39-307 203-1338 246-1544 31-145 86-327 154-507 62-163 79-228 125-478 20-107 54-271 76-365s53-234 69-311c28-137 54-230 70-250 5-6-7-98-26-205-20-107-38-229-41-271-5-74-5-76 26-112 35-39 78-57 201-82 231-48 562-169 1250-457 492-207 691-278 772-278 23 0 57 10 79 22 46 26 60 63 46 123-14 56-179 218-485 474-292 245-450 387-530 480-32 38-101 136-152 217-156 249-266 383-340 414-17 7-30 20-30 29s-20 210-45 446c-24 237-101 977-170 1645-106 1020-350 3318-385 3610-5 47-23 213-40 370s-33 302-36 323l-6 37h191c138 0 191 3 191 12 0 6-153 419-339 917-187 498-341 912-343 920-3 12 215 192 231 190 3 0 139-183 301-406s308-415 323-427c78-58 207 15 207 116 0 41-9 56-164 267-69 94-126 173-126 175 0 1 26 4 58 5 358 10 713 252 787 536 42 164-9 429-121 622l-24 42 55 55c109 109 152 264 105 374-100 231-453 167-587-107-24-48-28-68-28-141 0-47 4-95 8-106 7-20-4-29-110-89-293-168-516-347-603-482l-27-43-223 305c-122 168-229 309-237 313-13 8-11 74 17 543 73 1248 63 1136 99 1216 17 39 58 140 92 224 87 218 95 232 124 225 169-42 1293-374 1360-402 49-20 121-43 159-50 60-13 75-13 121 1 49 14 64 27 213 188 88 94 363 374 610 620l449 449 49-61c27-34 51-61 54-61s74 143 159 318c111 228 163 325 187 347 18 17 53 62 77 100 92 144 263 302 416 383 50 27 193 80 377 141l297 98 64-34c71-37 114-41 170-18 65 28 100 63 177 179 77 117 98 138 226 229 139 98 189 230 190 503 1 470-278 906-713 1119-226 110-403 150-657 150-361-1-634-103-840-314-85-87-130-157-168-263-25-69-27-84-28-268-1-223-10-261-84-370-56-82-80-137-80-185 0-23 15-104 34-180 39-162 45-198 48-321l2-91-42-63c-44-65-50-92-31-134 10-20 9-30-5-50-10-16-22-23-32-19-11 4-69-47-197-174-100-98-197-190-216-204l-34-25 24-33 24-33-61-57c-33-31-238-222-454-426-216-203-396-369-399-368-8 2-926 490-976 518l-41 23 10 72c14 98-3 183-53 286-72 145-178 215-346 231-75 7-114-10-153-67-15-22-30-39-33-40-4 0-157 25-340 55l-334 54-80 83c-214 222-437 449-440 446-1-2-8-14-16-28-13-24-13-24-26 30-29 123-83 453-83 505 0 71 28 103 161 185 135 83 164 110 190 178 20 54 21 63 10 182-29 306-98 721-160 957-19 71-19 73 0 111 55 111 31 216-96 407-88 133-87 132-159 375-38 128-77 185-166 245-54 36-83 64-105 100-70 117-155 172-301 195-87 14-375 10-485-6zm3763-8159c26-44 62-116 80-160 29-72 32-90 33-185 0-98-2-109-33-174-81-172-320-313-563-333-61-5-90-2-145 15-104 32-151 67-226 169l-66 91 51 23c72 34 208 129 334 234 130 109 329 307 363 364 24 40 26 41 75 39l49-3zm-1413-359 130-179-81-63c-45-35-84-64-88-64s-29 57-55 128c-47 122-49 132-53 252-3 85-1 122 6 115 6-5 69-91 141-189z" transform="matrix(.1 0 0 -.1 0 1920)" fill="#000000" stroke="none" stroke-width="2" vector-effect="non-scaling-stroke"/>
</svg>
